{"title":"NED (2003) Comedy","uid":9823663,"size":794754406,"categoryP":"video","categoryS":"movies","magnet":"?xt=urn:btih:03842d5f11b931fd54682cbe8737896a9fc106b5&amp;dn=NED+%282003%29+Comedy&amp;tr=udp%3A%2F%2Ftracker.openbittorrent.com%3A80&amp;tr=udp%3A%2F%2Fopen.demonii.com%3A1337&amp;tr=udp%3A%2F%2Ftracker.coppersurfer.tk%3A6969&amp;tr=udp%3A%2F%2Fexodus.desync.com%3A6969","seeders":1,"leechers":2,"uploader":"Pyre8Storm","files":-1,"time":1395736170,"description":"Ned (2003) is an Australian film, directed by Abe Forsythe. It is satire of Australian outlaw Ned Kelly, and his iconographical status as a &quot;hero.&quot;\n\nIn November 2006 on Vega FM host Shaun Micallef called Ned &quot;The funniest Australian film made in the last ten years.&quot;\n\nGood copies of this movie are very rare. There are 2 DVDs of this movie on ebay at the moment and the cheapest is $75, the other one is $100. \n\nThe other copy on TPB is not too bad, but it was ripped at the wrong frame rate causing a skip/pausing action, and the audio went out of sync about 30 mins in, but my thanks to the uploader for that upload, as it tied me over till I got a hold of a full DVD version to rip.\n\nWiki:\n &lt;a href=&quot;\nhttp://en.wikipedia.org/wiki/Ned_(film)&quot; rel=&quot;nofollow&quot; target=&quot;_NEW&quot;&gt;\nhttp://en.wikipedia.org/wiki/Ned_(film)&lt;/a&gt;\n\nIMDB:\n &lt;a href=&quot;\nhttp://www.imdb.com/title/tt0338280/&quot; rel=&quot;nofollow&quot; target=&quot;_NEW&quot;&gt;\nhttp://www.imdb.com/title/tt0338280/&lt;/a&gt;\n\nMovie Pics:\n &lt;a href=&quot;\nhttp://bayimg.com/lAmEmaaFL&quot; rel=&quot;nofollow&quot; target=&quot;_NEW&quot;&gt;\nhttp://bayimg.com/lAmEmaaFL&lt;/a&gt;\n\n\nINFO:\n\nVideo\n\nID                                       : 1\nFormat                                   : AVC\nFormat/Info                              : Advanced Video Codec\nFormat profile                           : &lt;a class=&quot;__cf_email__&quot; href=&quot;/cdn-cgi/l/email-protection&quot; data-cfemail=&quot;a5e8c4cccbe5e9918b95&quot;&gt;[email&amp;#160;protected]&lt;/a&gt;&lt;script cf-hash='f9e31' type=&quot;text/javascript&quot;&gt;\n/* &lt;![CDATA[ */!function(){try{var t=&quot;currentScript&quot;in document?document.currentScript:function(){for(var t=document.getElementsByTagName(&quot;script&quot;),e=t.length;e--;)if(t[e].getAttribute(&quot;cf-hash&quot;))return t[e]}();if(t&amp;&amp;t.previousSibling){var e,r,n,i,c=t.previousSibling,a=c.getAttribute(&quot;data-cfemail&quot;);if(a){for(e=&quot;&quot;,r=parseInt(a.substr(0,2),16),n=2;a.length-n;n+=2)i=parseInt(a.substr(n,2),16)^r,e+=String.fromCharCode(i);e=document.createTextNode(e),c.parentNode.replaceChild(e,c)}}}catch(u){}}();/* ]]&gt; */&lt;/script&gt;\nFormat settings, CABAC                   : Yes\nFormat settings, ReFrames                : 4 frames\nCodec ID                                 : avc1\nCodec ID/Info                            : Advanced Video Coding\nDuration                                 : 1h 18mn\nBit rate mode                            : Variable\nBit rate                                 : 1 183 Kbps\nWidth                                    : 720 pixels\nHeight                                   : 404 pixels\nDisplay aspect ratio                     : 16:9\nFrame rate mode                          : Variable\nFrame rate                               : 25.000 fps\nMinimum frame rate                       : 16.667 fps\nMaximum frame rate                       : 25.000 fps\nColor space                              : YUV\nChroma subsampling                       : 4:2:0\nBit depth                                : 8 bits\nScan type                                : Progressive\nBits/(Pixel*Frame)                       : 0.163\nStream size                              : 666 MiB (88%)\nWriting library                          : x264 core 130 r2273 b3065e6\n\nAudio\nID                                       : 2\nFormat                                   : AAC\nFormat/Info                              : Advanced Audio Codec\nFormat profile                           : LC\nCodec ID                                 : 40\nDuration                                 : 1h 18mn\nBit rate mode                            : Variable\nBit rate                                 : 160 Kbps\nMaximum bit rate                         : 217 Kbps\nChannel count                            : 2 channels\nChannel positions                        : Front: L R\nSampling rate                            : 48.0 KHz\nCompression mode                         : Lossy\nDelay relative to video                  : 80ms\nStream size                              : 90.1 MiB (12%)\n\nPlease seed for others\n\n","torrent":{"xt":"urn:btih:03842d5f11b931fd54682cbe8737896a9fc106b5","amp;dn":"NED+%282003%29+Comedy","amp;tr":["udp%3A%2F%2Ftracker.openbittorrent.com%3A80","udp%3A%2F%2Fopen.demonii.com%3A1337","udp%3A%2F%2Ftracker.coppersurfer.tk%3A6969","udp%3A%2F%2Fexodus.desync.com%3A6969"],"infoHash":"03842d5f11b931fd54682cbe8737896a9fc106b5","infoHashBuffer":{"type":"Buffer","data":[3,132,45,95,17,185,49,253,84,104,44,190,135,55,137,106,159,193,6,181]},"announce":[],"urlList":[]}}